<?xml version="1.0" encoding="UTF-8"?>
<svg version="1.1" viewBox="0 0 840 859" width="1280" height="1280" xmlns="http://www.w3.org/2000/svg">
<path transform="translate(420,185)" d="m0 0h2l9 17 10 14 9 11 14 15 15 14 2 1v2l4 2 12 10 9 7 17 12 10 7 15 10 16 10 21 13 52 30 26 14 2 10 1 15v31l-3 29-4 20-8 27-7 16-8 16-10 17-13 17-12 14-11 11-5 2v-2h2l2-4 12-15 11-17 11-22 8-25 2-10 1-11v-15l-3-16-5-13-7-12-7-8-15-10-55-33-23-13-24-14-21-12-16-9-18-10-17-10-6 1-17 10-11 6-27 15-14 8-24 14-26 15-22 13-15 9-24 15-9 6-10 14-5 11-4 13-1 7v25l5 22 6 18 10 20 14 21 9 11 5 7-4-1-18-18-9-11-11-15-11-19-8-16-6-16-6-18-5-23-3-24v-46l2-17 8-5 26-14 17-10 16-9 25-15 22-14 15-10 16-11 24-18 14-12 12-11 9-8 7-8 8-9 13-18z" fill="#287494"/>
<path transform="translate(420,357)" d="m0 0h2l9 14 8 10 7 8 11 12 14 12 17 13 20 13 22 13 25 14 17 10 9 6 2 13v16l-2 20-4 20-8 23-10 20-11 16-5 6h-2l-2 4-4 4h-2l1-4 11-18 8-16 6-18 1-8v-16l-4-13-7-11-4-5-15-11-18-10-15-9-29-17-23-13-22-12h-5l-23 13-22 12-10 6-22 13-24 14-14 9-9 8-9 14-4 16v10l3 16 6 15 10 19 9 14-2 2-10-10-11-15-8-14-7-15-6-18-4-17-2-15v-29l1-8 5-4 22-13 23-13 22-13 27-18 14-11 12-11 3-3h2l2-4 7-7 10-13 7-10z" fill="#287595"/>
<path transform="translate(696,437)" d="m0 0 9 3 35 18 18 8 27 9 16 3 11 1h24l-2 4-7 7-8 7-11 14-14 24-8 16-14 30-9 20-4 9-12 26-10 19-5 8-24 6-27 6-4-1 14-13h2l2-4 7-7 7-10 8-13 9-16 11-25 10-26 13-37 1-5-4-2-16-10-18-10-29-14-6-3 4-17 2-12 1-11z" fill="#287595"/>
<path transform="translate(143,437)" d="m0 0 3 1 4 26 3 12-1 4-28 13-24 13-15 10-4 3 2 9 15 42 10 25 14 28 12 19 7 9 9 10 11 10 3 2v2l-12-2-30-7-13-4-9-16-11-22-15-33-11-24-16-33-9-16-7-11-7-9-8-7-10-10 1-2h27l22-4 18-5 28-12 22-11z" fill="#287595"/>
<path transform="translate(420,475)" d="m0 0h2l9 13 12 13 12 11 17 12 23 14 20 12 10 7 1 1 1 9v15l-2 14-5 17-6 14-10 16-5 6h-2l2-5 6-10 5-10 3-12v-9l-3-11-8-10-10-8-11-7-18-11-14-7-16-9-11-6-4 1-23 12-35 20-17 12-8 8-5 10-1 3v16l5 13 9 16 2 2-1 3-5-5-10-16-7-15-5-16-2-11v-26l1-4 22-14 29-17 18-13 13-11 7-7 11-14z" fill="#287595"/>
<path transform="translate(671,519)" d="m0 0 6 1 13 6 17 3 19 1-2 5-8 9-11 19-12 23-8 16-16 31-10 4-28 7h-2l2-4 5-5 8-9 13-20 13-24 9-20 3-8v-3l-24-11 3-6z" fill="#287696"/>
<path transform="translate(169,518)" d="m0 0 3 3 11 17v2l-23 11h-2l10 23 14 28 14 22 12 14 4 5-10-1-28-8-6-10-12-23-8-16-8-15-8-16-12-17-4-4v-3l21-1 17-4z" fill="#287696"/>
<path transform="translate(176,392)" d="m0 0h1v39l5-1 5 5h5v-2h7l2 2 1-2h3 3v3h2l1-4 5 1v3l4-5 8-2-3 5-7 10-5 11-4 13-1 7v25l5 22 6 18 10 20 14 21 9 11 5 7-4-1-18-18-9-11-11-15-11-19-8-16-6-16-6-18-5-23-3-24z" fill="#287696"/>
<path transform="translate(613,429)" d="m0 0 5 1 5 3 2-1 5 3h4l2-4 6 4v-3l4-1 7 1 5 1h2l2-4 3 1v12l-3 23-4 18-7 23-7 16-8 16-10 17-13 17-12 14-11 11-5 2v-2h2l2-4 12-15 11-17 11-22 8-25 2-10 1-11v-15l-3-16-5-13-7-12z" fill="#297696"/>
<path transform="translate(756,612)" d="m0 0 1 3-10 21-10 19-5 8-24 6-27 6-4-1 14-13h2l2-4 7-7 7-10 8-13 8-14 4 3h9l5 1h3l2-2h3l1 2 3-3z" fill="#3596B5"/>
<path transform="translate(83,608)" d="m0 0 3 4 3 3 10 1 4-1h3l1 2 7-1 3-2 11 19 11 16 12 13 10 9 3 2v2l-12-2-30-7-13-4-9-16-11-22-6-13z" fill="#3596B5"/>
<path transform="translate(99,575)" d="m0 0 3 4 6 16 8 16-1 5-4 1-5-1-5 1h-8l-5-1-4-6v-2h-2l-13-28 1-2 11 2 13-1 4-2z" fill="#287696"/>
<path transform="translate(206,477)" d="m0 0h1l1 23 5 22 6 18 10 20 14 21 9 11 5 7-4-1-18-18-9-11-11-15-11-19-8-16-9-24 1-3 3 3 2-2 1 2 3 1v2l6-2 1-3 1 1z" fill="#3596B5"/>
<path transform="translate(634,493)" d="m0 0 7 2 1 3 3 1v-3h2l2-2h3l2-1-1 6-6 17-10 21-8 13-9 13-11 14-12 13-7 7-5 2v-2h2l2-4 12-15 11-17 11-22 8-25 2-10z" fill="#3596B5"/>
<path transform="translate(654,611)" d="m0 0 7 1 6 1h10l2-1-2 6-9 16-24 7-15 3 2-4 5-5 8-9z" fill="#3697B6"/>
<path transform="translate(186,610)" d="m0 0 3 3 10 15 13 14v1l-10-1-28-8-6-10-5-10 1-2 5 1h9l4-2 3 1z" fill="#3596B5"/>
<path transform="translate(315,576)" d="m0 0 1 2 10 1 14-1 1 3-8 9-4 10v16l5 13 9 16 2 2-1 3-5-5-10-16-7-15-5-16-2-11z" fill="#297898"/>
<path transform="translate(561,546)" d="m0 0h1l1 10 7 3 1-2 1 1 3-4-2 9-6 15-10 19-10 14-4 5h-2l-2 4-4 4h-2l1-4 11-18 8-16 6-18z" fill="#3596B5"/>
<path transform="translate(279,550)" d="m0 0h1l4 24 6 15 10 19 9 14-2 2-10-10-11-15-8-14-7-15-4-12 2-4 2 3 2 1 6-1z" fill="#3697B6"/>
<path transform="translate(176,392)" d="m0 0h1v39l5-1 5 5h5v-2h7l2 2 1-2h3 3v3h2l1-4 5 1v5l-20 1-16-1-1 1-1 7h-1l-1-8z" fill="#3596B5"/>
<path transform="translate(327,603)" d="m0 0h1l1 13 5 13 9 16 2 2-1 3-5-5-10-16-7-15-2-9 6 1z" fill="#3596B5"/>
<path transform="translate(521,604)" d="m0 0 1 3-8 20-10 16-5 6h-2l2-5 6-10 5-10 3-12 1-6 4-1v2z" fill="#3596B5"/>
<path transform="translate(259,513)" d="m0 0 4 1v2l20-1 3 2-2 1h-10l-9 2-3-1-2 2-1-1z" fill="#3697B6"/>
<path transform="translate(226,429)" d="m0 0 2 1-7 10-1-2h-3l1-4 2-3z" fill="#328EAE"/>
<path transform="translate(613,429)" d="m0 0 5 1 5 3 2-1-1 5-4 2-7-9z" fill="#3595B4"/>
<path transform="translate(99,575)" d="m0 0 3 4-1 2-2-1-2 1-9 1-5 1-2-3 13-1 4-2z" fill="#3596B5"/>
<path transform="translate(645,431)" d="m0 0 8 1 6 2-2 2h-7l-7-1-1-3z" fill="#3595B4"/>
<path transform="translate(315,576)" d="m0 0 1 2 10 1 1 2h-10v3h2l-1 2-2-1-1 2z" fill="#3595B4"/>
<path transform="translate(69,578)" d="m0 0 11 2v2h-6l-1 5-2-3z" fill="#3697B6"/>
<path transform="translate(336,578)" d="m0 0h4l1 3-4 3v-3h-9l-1-2z" fill="#3595B4"/>
<path transform="translate(174,588)" d="m0 0 3 4 1 4h-3l1-3-4 2-4-1h3l1-2z" fill="#3697B6"/>
</svg>
